<?xml version="1.0" encoding="utf-8"?>
<!-- Generated by IcoMoon.io -->
<!DOCTYPE svg PUBLIC "-//W3C//DTD SVG 1.1//EN" "http://www.w3.org/Graphics/SVG/1.1/DTD/svg11.dtd">
<svg version="1.1" xmlns="http://www.w3.org/2000/svg" xmlns:xlink="http://www.w3.org/1999/xlink" width="50" height="50" viewBox="0 0 50 50">
<path d="M24.073 28.793l-17.656 17.655c-0.375 0.375-0.604 0.896-0.604 1.469 0 1.146 0.927 2.083 2.083 2.083 0.302 0 0.583-0.064 0.844-0.177 0 0 29.417-12.75 29.751-12.907 0.686-0.311 1.219-0.916 1.427-1.667l4.76-17.156 0.958 0.948c0.999 1 2.615 1 3.614 0 1.001-1 1.001-2.616 0-3.615l-14.678-14.676c-0.999-1-2.615-1-3.614 0-1.001 1-1.001 2.616 0 3.615l0.948 0.948-17.188 4.781c-0.75 0.22-1.354 0.76-1.667 1.469l-12.885 29.73c-0.104 0.249-0.167 0.521-0.167 0.812 0 1.156 0.937 2.083 2.083 2.083 0.594 0 1.125-0.24 1.5-0.634l17.625-17.625c-0.24-0.616-0.375-1.272-0.375-1.97 0-2.875 2.333-5.208 5.208-5.208s5.208 2.333 5.208 5.208-2.333 5.208-5.208 5.208c-0.698 0-1.354-0.135-1.969-0.374z" fill="#444444"></path>
</svg>